<svg xmlns="http://www.w3.org/2000/svg" xmlns:xlink="http://www.w3.org/1999/xlink" viewBox="0 0 124 68.48"><defs><style>.cls-1{fill:none;}.cls-2{clip-path:url(#clip-path);}.cls-3{fill:#e54a24;}.cls-4{fill:#d43087;}.cls-5{fill:#73b21f;}.cls-6{fill:#965799;}.cls-7{fill:#00367a;}</style><clipPath id="clip-path" transform="translate(0 0)"><rect class="cls-1" width="124" height="68.48"/></clipPath></defs><title>Asset 1</title><g id="Layer_2" data-name="Layer 2"><g id="Layer_1-2" data-name="Layer 1"><g class="cls-2"><rect class="cls-3" x="0.1" y="40.78" width="25.23" height="24.48" rx="2.14"/><rect class="cls-4" x="30.54" y="40.78" width="17.11" height="16.6" rx="1.45"/><rect class="cls-5" x="53.66" y="40.82" width="18.5" height="17.95" rx="1.57"/><rect class="cls-6" x="78.08" y="51.02" width="17.99" height="17.46" rx="1.53"/><rect class="cls-7" x="106.96" y="40.78" width="17.04" height="16.54" rx="1.45"/><path d="M13.94,22.44c-.36.68-.8,1-1.32,1s-.92-.35-1.28-1L3.24,6.87V34.61a1.05,1.05,0,0,1-.51,1,2.13,2.13,0,0,1-1.11.32,2,2,0,0,1-1.13-.32,1.06,1.06,0,0,1-.49-1v-33A1.39,1.39,0,0,1,.49.34,2,2,0,0,1,1.62,0a2,2,0,0,1,1.5.66,7.77,7.77,0,0,1,1.1,1.6l8.45,16.3,8.44-16.3a7.77,7.77,0,0,1,1.1-1.6A2.08,2.08,0,0,1,24.87.34a1.44,1.44,0,0,1,.46,1.23v33a1.06,1.06,0,0,1-.49,1,2,2,0,0,1-1.13.32,2.07,2.07,0,0,1-1.1-.32,1,1,0,0,1-.52-1V7Z" transform="translate(0 0)"/><path d="M44.48,25.23H42.42c-1.15,0-2.24.05-3.27.13a10.78,10.78,0,0,0-2.77.56,4.46,4.46,0,0,0-1.94,1.28,3.33,3.33,0,0,0-.71,2.26A3.71,3.71,0,0,0,35,32.57a4.81,4.81,0,0,0,3,1A5.87,5.87,0,0,0,40.33,33a8.78,8.78,0,0,0,2.09-1.25,6.81,6.81,0,0,0,1.49-1.67,3.31,3.31,0,0,0,.57-1.74Zm-5.7-12.86a9.72,9.72,0,0,1,4.15.79,7.31,7.31,0,0,1,2.75,2.11,8.37,8.37,0,0,1,1.52,3,13.55,13.55,0,0,1,.47,3.54V34.61a1.16,1.16,0,0,1-.44.91,1.74,1.74,0,0,1-1.13.37A1.57,1.57,0,0,1,45,35.52a1.16,1.16,0,0,1-.41-.91V32.45a14.32,14.32,0,0,1-3.1,2.63,7.87,7.87,0,0,1-4.32,1.15,8.42,8.42,0,0,1-2.62-.39,5.72,5.72,0,0,1-2.11-1.2,5.61,5.61,0,0,1-1.43-2,7.33,7.33,0,0,1-.51-2.87,6.08,6.08,0,0,1,.83-3.31,5.77,5.77,0,0,1,2.33-2.06,11.46,11.46,0,0,1,3.61-1.06A33.28,33.28,0,0,1,42,23h2.51V21.85a9.12,9.12,0,0,0-.32-2.36,6.49,6.49,0,0,0-1-2.14,5.46,5.46,0,0,0-1.79-1.57,5.4,5.4,0,0,0-2.67-.61,8.37,8.37,0,0,0-2.09.22,9.7,9.7,0,0,0-1.47.49c-.41.18-.75.35-1,.49a1.41,1.41,0,0,1-.69.22,1,1,0,0,1-1-.59,2.26,2.26,0,0,1-.32-1.12,1.21,1.21,0,0,1,.59-.94,6,6,0,0,1,1.54-.78,14.1,14.1,0,0,1,2.14-.57,12.46,12.46,0,0,1,2.35-.22" transform="translate(0 0)"/><path d="M56.85,34.61a1.14,1.14,0,0,1-.47.88,1.68,1.68,0,0,1-1.15.4,1.61,1.61,0,0,1-1.13-.4,1.16,1.16,0,0,1-.44-.88V13.84A1,1,0,0,1,54.1,13a1.84,1.84,0,0,1,1.13-.32,1.66,1.66,0,0,1,1,.32,1,1,0,0,1,.44.85V16.1a7.94,7.94,0,0,1,2.43-2.57,7.06,7.06,0,0,1,4.15-1.16,8.2,8.2,0,0,1,3.36.71,8.58,8.58,0,0,1,2.78,2A10.06,10.06,0,0,1,71.31,18,9.11,9.11,0,0,1,72,21.55V34.61a1,1,0,0,1-.52,1,2.07,2.07,0,0,1-1.1.32,2,2,0,0,1-1.06-.32,1.05,1.05,0,0,1-.51-1V21.55a5.92,5.92,0,0,0-.49-2.31,6.56,6.56,0,0,0-1.33-2,6.78,6.78,0,0,0-1.94-1.4,5.33,5.33,0,0,0-2.38-.54,5.88,5.88,0,0,0-2.13.41A5.43,5.43,0,0,0,58.69,17a6.63,6.63,0,0,0-1.33,2,6.41,6.41,0,0,0-.51,2.62Z" transform="translate(0 0)"/><path d="M120.81,25.23h-2.06c-1.15,0-2.24.05-3.27.13a10.78,10.78,0,0,0-2.77.56,4.46,4.46,0,0,0-1.94,1.28,3.38,3.38,0,0,0-.71,2.26,3.71,3.71,0,0,0,1.22,3.11,4.81,4.81,0,0,0,3,1,5.87,5.87,0,0,0,2.33-.49,8.58,8.58,0,0,0,2.09-1.25,6.81,6.81,0,0,0,1.49-1.67,3.31,3.31,0,0,0,.57-1.74Zm-5.7-12.86a9.69,9.69,0,0,1,4.15.79A7.31,7.31,0,0,1,122,15.27a8.38,8.38,0,0,1,1.53,3,14,14,0,0,1,.46,3.54V34.61a1.16,1.16,0,0,1-.44.91,1.74,1.74,0,0,1-1.13.37,1.57,1.57,0,0,1-1.06-.37,1.16,1.16,0,0,1-.41-.91V32.45a14.08,14.08,0,0,1-3.1,2.63,7.87,7.87,0,0,1-4.32,1.15,8.42,8.42,0,0,1-2.62-.39,5.8,5.8,0,0,1-2.11-1.2,5.61,5.61,0,0,1-1.43-2,7.33,7.33,0,0,1-.51-2.87,6.08,6.08,0,0,1,.83-3.31A5.84,5.84,0,0,1,110,24.38a11.46,11.46,0,0,1,3.61-1.06,33.33,33.33,0,0,1,4.67-.3h2.5V21.85a9.12,9.12,0,0,0-.32-2.36,6.49,6.49,0,0,0-1-2.14A5.22,5.22,0,0,0,115,15.17a8.37,8.37,0,0,0-2.09.22,10.09,10.09,0,0,0-1.47.49c-.41.18-.75.35-1,.49a1.41,1.41,0,0,1-.69.22,1,1,0,0,1-1-.59,2.26,2.26,0,0,1-.32-1.12,1.21,1.21,0,0,1,.59-.94,6,6,0,0,1,1.54-.78,14.1,14.1,0,0,1,2.14-.57,12.46,12.46,0,0,1,2.35-.22" transform="translate(0 0)"/><path d="M81.19,26.7A5.89,5.89,0,0,0,81.67,29,6.45,6.45,0,0,0,83,31a6.34,6.34,0,0,0,1.89,1.39,5.14,5.14,0,0,0,2.27.53,5.2,5.2,0,0,0,2.32-.53,7.22,7.22,0,0,0,1.87-1.29,6.65,6.65,0,0,0,1.22-1.58A3,3,0,0,0,93,28.19v-6.7A6.07,6.07,0,0,0,91.14,17a5.53,5.53,0,0,0-1.86-1.19,5.9,5.9,0,0,0-2.11-.41,5.23,5.23,0,0,0-2.32.53A6.61,6.61,0,0,0,83,17.3a6.39,6.39,0,0,0-1.29,1.94,5.55,5.55,0,0,0-.48,2.25Zm13.4-13.87a1.68,1.68,0,0,1,1.07.31,1,1,0,0,1,.41.83v31.4a1.07,1.07,0,0,1-.41.81,1.47,1.47,0,0,1-1.07.39,1.76,1.76,0,0,1-1.15-.39,1,1,0,0,1-.48-.81V32.11a6.87,6.87,0,0,1-2.51,2.59,7.38,7.38,0,0,1-7.16.33,9.29,9.29,0,0,1-2.68-2,9.9,9.9,0,0,1-1.84-2.89,8.79,8.79,0,0,1-.69-3.43V21.49A9,9,0,0,1,78.75,18a8.85,8.85,0,0,1,1.84-2.85,8.57,8.57,0,0,1,2.75-1.92,8.3,8.3,0,0,1,3.35-.69,6.79,6.79,0,0,1,4,1.12,8.18,8.18,0,0,1,2.41,2.52V14a1,1,0,0,1,.41-.83,1.71,1.71,0,0,1,1.08-.31" transform="translate(0 0)"/><path d="M102.44,0A2.12,2.12,0,0,1,104,.65a2.12,2.12,0,0,1,.65,1.55c0,.7-.64,2.51-1.92,5.41a1,1,0,0,1-.38.43.88.88,0,0,1-.48.14,1.35,1.35,0,0,1-.81-.26.83.83,0,0,1-.39-.74.8.8,0,0,1,.1-.43l1-2.49a2.19,2.19,0,0,1-1.08-.81,2.17,2.17,0,0,1,.22-2.8A2.1,2.1,0,0,1,102.44,0" transform="translate(0 0)"/></g></g></g></svg>